<?xml version="1.0" standalone="no"?>
<!DOCTYPE svg PUBLIC "-//W3C//DTD SVG 20010904//EN"
 "http://www.w3.org/TR/2001/REC-SVG-20010904/DTD/svg10.dtd">
<svg version="1.0" xmlns="http://www.w3.org/2000/svg"
 width="500.000000pt" height="500.000000pt" viewBox="0 0 500.000000 500.000000"
 preserveAspectRatio="xMidYMid meet">

<g transform="translate(0.000000,500.000000) scale(0.100000,-0.100000)"
fill="#000000" stroke="none">
<path d="M675 3050 c-3 -5 3 -10 14 -10 12 0 21 5 21 10 0 6 -6 10 -14 10 -8
0 -18 -4 -21 -10z"/>
<path d="M3620 2841 c-43 -12 -40 -79 16 -277 l25 -91 -34 -134 c-47 -183 -48
-192 -31 -218 14 -20 23 -21 155 -21 126 0 141 2 156 20 17 19 17 19 30 0 13
-18 26 -20 147 -20 177 0 175 -1 152 116 -10 49 -28 131 -41 182 l-23 94 33
116 c42 150 48 187 35 212 -10 19 -21 20 -155 20 -115 0 -147 -3 -159 -15 -13
-14 -16 -13 -25 2 -8 16 -27 18 -133 20 -68 1 -134 -1 -148 -6z m206 -48 c-17
-57 -76 -283 -76 -292 0 -6 19 -11 45 -11 52 0 50 11 29 -138 -8 -62 -14 -117
-12 -123 3 -8 188 340 188 355 0 3 -18 6 -40 6 -22 0 -40 2 -40 5 0 3 25 50
56 105 l56 100 90 0 90 0 -7 -37 c-3 -21 -21 -90 -39 -153 -32 -112 -33 -116
-19 -175 17 -71 63 -283 63 -290 0 -3 -55 -4 -122 -3 l-123 3 -17 79 c-26 127
-35 121 -64 -46 l-6 -38 -129 0 -129 0 6 28 c3 15 22 90 41 166 l34 140 -25
90 c-31 108 -56 233 -48 241 3 3 50 5 104 5 90 0 99 -2 94 -17z"/>
<path d="M1178 2724 c-3 -3 -101 -5 -217 -5 l-211 1 0 -43 c0 -84 40 -419 51
-433 15 -18 169 -20 187 -2 9 9 15 9 24 0 14 -14 155 -16 176 -4 8 5 18 57 26
138 12 115 14 121 15 59 2 -127 58 -197 167 -211 67 -8 124 0 172 25 45 23 66
46 86 91 l15 35 1 -65 c0 -38 5 -71 12 -78 16 -16 190 -16 206 0 8 8 15 8 27
-2 11 -10 51 -11 172 -5 87 4 166 11 175 16 10 6 19 5 23 -1 3 -6 50 -10 106
-10 76 0 101 3 105 14 4 12 12 11 52 -1 61 -19 171 -11 216 15 33 20 33 20 67
-2 30 -18 48 -21 151 -21 102 0 120 3 144 21 56 42 69 69 73 160 3 73 6 85 20
82 14 -3 16 -20 16 -126 0 -98 3 -124 15 -132 18 -12 210 -13 227 -2 8 5 13
48 15 132 l3 125 40 5 40 5 3 108 3 107 -198 1 c-645 5 -839 2 -860 -9 -12 -7
-23 -8 -25 -2 -3 10 -31 11 -218 12 -69 0 -138 0 -155 0 -55 1 -65 -2 -65 -16
0 -13 -4 -13 -27 0 -37 18 -333 20 -351 2 -7 -7 -12 -35 -12 -62 l0 -51 -19
35 c-10 19 -33 45 -51 58 -29 19 -45 22 -141 22 -122 0 -149 -7 -191 -52 l-29
-31 2 42 c2 28 -2 45 -12 52 -16 10 -43 12 -51 3z m-252 -84 c10 -94 25 -89
39 13 6 43 8 47 34 47 27 0 28 -2 34 -61 3 -33 8 -63 12 -67 11 -11 25 22 25
60 0 64 5 68 82 68 l70 0 -5 -32 c-3 -18 -14 -117 -23 -220 l-18 -188 -77 0
-78 0 -7 60 c-4 33 -10 60 -14 60 -9 0 -20 -51 -20 -91 l0 -29 -79 0 c-67 0
-81 3 -85 18 -3 9 -12 87 -21 172 -8 85 -17 176 -20 203 l-6 47 75 0 75 0 7
-60z m1326 5 c-5 -72 12 -72 34 0 l18 55 88 0 c48 0 88 -1 88 -3 0 -2 -14 -52
-30 -111 -22 -79 -28 -112 -20 -126 5 -10 17 -49 25 -87 9 -37 18 -78 20 -91
6 -23 5 -23 -87 -20 l-92 3 -14 55 c-20 82 -32 85 -32 7 l0 -67 -68 0 -68 0
-16 67 c-14 59 -14 70 -1 107 19 53 19 161 -1 208 -9 21 -16 42 -16 48 0 6 34
10 88 10 l87 0 -3 -55z m509 -130 c3 -99 9 -189 13 -201 11 -32 -44 -54 -133
-54 -90 0 -138 19 -147 57 -3 15 -14 60 -25 99 l-18 72 24 88 c33 121 39 125
174 122 l106 -3 6 -180z m191 60 c3 -118 14 -162 35 -141 5 4 9 66 11 137 l4
129 69 0 69 0 0 -96 c0 -87 2 -96 20 -101 17 -4 20 -14 20 -57 0 -72 -15 -118
-51 -152 -29 -28 -35 -29 -133 -32 -122 -4 -165 9 -193 60 -15 27 -19 62 -21
206 l-4 172 85 0 85 0 4 -125z m606 38 l-3 -88 -42 -3 -43 -3 0 -130 0 -129
-105 0 -104 0 -3 128 -3 127 -41 3 c-41 3 -41 3 -48 49 -3 25 -6 65 -6 89 l0
44 200 0 201 0 -3 -87z m-1959 43 c39 -37 51 -80 51 -182 0 -102 -29 -169 -89
-202 -53 -30 -181 -31 -229 -2 -60 37 -72 70 -72 205 0 135 7 157 60 193 32
22 43 23 142 20 103 -3 108 -4 137 -32z m437 19 c54 -37 70 -149 33 -234 l-20
-48 20 -63 c12 -35 21 -67 21 -72 0 -4 -37 -8 -83 -8 l-82 0 -18 50 c-10 28
-22 50 -27 50 -6 0 -10 -22 -10 -50 l0 -50 -85 0 -85 0 0 220 0 220 158 0
c122 0 162 -3 178 -15z"/>
<path d="M2627 2563 c-14 -13 -8 -150 7 -162 20 -17 27 -2 33 68 7 71 -15 120
-40 94z"/>
<path d="M1430 2545 c-8 -10 -11 -37 -8 -80 4 -70 9 -81 33 -71 13 5 15 20 13
83 -3 77 -14 97 -38 68z"/>
<path d="M1870 2530 c0 -37 4 -50 13 -47 7 2 12 21 12 47 0 26 -5 45 -12 48
-9 2 -13 -11 -13 -48z"/>
<path d="M1890 1913 c0 -4 5 -25 11 -45 11 -42 39 -52 40 -15 l0 22 11 -22
c17 -36 34 -27 45 22 8 35 7 45 -3 45 -7 0 -15 -10 -17 -22 l-4 -23 -8 23 c-9
28 -27 24 -36 -9 l-6 -24 -4 24 c-4 22 -29 44 -29 24z"/>
<path d="M2079 1899 c-16 -30 3 -69 34 -69 29 0 47 17 47 45 0 45 -60 63 -81
24z m55 -15 c8 -20 -1 -34 -20 -34 -8 0 -14 10 -14 25 0 28 24 34 34 9z"/>
<path d="M2240 1875 c0 -43 1 -45 30 -45 17 0 30 5 30 10 0 6 -9 10 -20 10
-16 0 -20 7 -20 35 0 19 -4 35 -10 35 -5 0 -10 -20 -10 -45z"/>
<path d="M2370 1875 c0 -25 5 -45 10 -45 6 0 10 6 10 14 0 7 10 17 23 21 l22
8 -22 4 c-28 5 -30 23 -3 23 11 0 20 5 20 10 0 6 -13 10 -30 10 -29 0 -30 -2
-30 -45z"/>
<path d="M2602 1908 c-30 -30 -4 -83 39 -76 34 5 36 27 2 25 -22 -2 -28 2 -28
18 0 14 7 20 22 20 13 0 23 5 23 10 1 15 -43 18 -58 3z"/>
<path d="M2740 1875 c0 -43 1 -45 30 -45 17 0 30 5 30 10 0 6 -9 10 -20 10
-16 0 -20 7 -20 35 0 19 -4 35 -10 35 -5 0 -10 -20 -10 -45z"/>
<path d="M2882 1878 c3 -40 5 -43 33 -43 28 0 30 3 33 43 2 25 -1 42 -7 42 -6
0 -11 -16 -11 -35 0 -24 -5 -35 -15 -35 -10 0 -15 11 -15 35 0 19 -5 35 -11
35 -6 0 -9 -17 -7 -42z"/>
<path d="M3030 1876 c0 -46 0 -46 34 -46 38 0 45 11 37 55 -5 25 -11 31 -39
33 -32 3 -32 3 -32 -42z m50 20 c0 -11 -19 -15 -25 -6 -3 5 1 10 9 10 9 0 16
-2 16 -4z m0 -36 c0 -5 -7 -10 -16 -10 -8 0 -12 5 -9 10 3 6 10 10 16 10 5 0
9 -4 9 -10z"/>
</g>
</svg>
